<svg xmlns="http://www.w3.org/2000/svg" width="512" height="512" viewBox="0 0 512 512">
  <defs><linearGradient id="g" x1="0" y1="0" x2="1" y2="1">
    <stop offset="0" stop-color="#C5B3F6"/><stop offset="1" stop-color="#8F6BE8"/>
  </linearGradient></defs>
  <rect width="512" height="512" rx="112" fill="url(#g)"/>
  <path d="M238 196 C 200 170 146 162 102 171 C 96 172 92 177 92 183 L92 366 C92 374 99 380 107 378 C 149 371 201 379 238 404 Z" fill="#FBBF24"/>
  <path d="M274 196 C 312 170 366 162 410 171 C 416 172 420 177 420 183 L420 366 C420 374 413 380 405 378 C 363 371 311 379 274 404 Z" fill="#FBBF24"/>
  <path d="M352 78 C 360 116 372 128 410 136 C 372 144 360 156 352 194 C 344 156 332 144 294 136 C 332 128 344 116 352 78 Z" fill="#FFF3C4"/>
  <path d="M256 122 C 260 140 266 146 284 150 C 266 154 260 160 256 178 C 252 160 246 154 228 150 C 246 146 252 140 256 122 Z" fill="#FFF3C4" opacity="0.92"/>
</svg>
